<svg xmlns="http://www.w3.org/2000/svg" version="1.1" xmlns:xlink="http://www.w3.org/1999/xlink" xmlns:svgjs="http://svgjs.com/svgjs" width="1440" height="560" preserveAspectRatio="none" viewBox="0 0 1440 560"><g mask="url(&quot;#SvgjsMask1000&quot;)" fill="none"><rect width="1440" height="560" x="0" y="0" fill="#0e2a47"></rect><path d="M72.36 -69.24L137.31 -31.74L137.31 43.26L72.36 80.76L7.41 43.26L7.41 -31.74zM72.36 155.76L137.31 193.26L137.31 268.26L72.36 305.76L7.41 268.26L7.41 193.26zM137.31 268.26L202.27 305.76L202.27 380.76L137.31 418.26L72.36 380.76L72.36 305.76zM72.36 380.76L137.31 418.26L137.31 493.26L72.36 530.76L7.41 493.26L7.41 418.26zM202.27 -69.24L267.22 -31.74L267.22 43.26L202.27 80.76L137.31 43.26L137.31 -31.74zM267.22 43.26L332.18 80.76L332.18 155.76L267.22 193.26L202.27 155.76L202.27 80.76zM202.27 155.76L267.22 193.26L267.22 268.26L202.27 305.76L137.31 268.26L137.31 193.26zM267.22 268.26L332.18 305.76L332.18 380.76L267.22 418.26L202.27 380.76L202.27 305.76zM202.27 380.76L267.22 418.26L267.22 493.26L202.27 530.76L137.31 493.26L137.31 418.26zM397.13 43.26L462.08 80.76L462.08 155.76L397.13 193.26L332.18 155.76L332.18 80.76zM332.18 155.76L397.13 193.26L397.13 268.26L332.18 305.76L267.22 268.26L267.22 193.26zM397.13 493.26L462.08 530.76L462.08 605.76L397.13 643.26L332.18 605.76L332.18 530.76zM462.08 -69.24L527.04 -31.74L527.04 43.26L462.08 80.76L397.13 43.26L397.13 -31.74zM462.08 155.76L527.04 193.26L527.04 268.26L462.08 305.76L397.13 268.26L397.13 193.26zM462.08 380.76L527.04 418.26L527.04 493.26L462.08 530.76L397.13 493.26L397.13 418.26zM656.94 268.26L721.9 305.76L721.9 380.76L656.94 418.26L591.99 380.76L591.99 305.76zM656.94 493.26L721.9 530.76L721.9 605.76L656.94 643.26L591.99 605.76L591.99 530.76zM786.85 493.26L851.81 530.76L851.81 605.76L786.85 643.26L721.9 605.76L721.9 530.76zM851.8 155.76L916.76 193.26L916.76 268.26L851.8 305.76L786.85 268.26L786.85 193.26zM916.76 493.26L981.71 530.76L981.71 605.76L916.76 643.26L851.8 605.76L851.8 530.76zM1046.67 43.26L1111.62 80.76L1111.62 155.76L1046.67 193.26L981.71 155.76L981.71 80.76zM981.71 155.76L1046.67 193.26L1046.67 268.26L981.71 305.76L916.76 268.26L916.76 193.26zM1046.67 268.26L1111.62 305.76L1111.62 380.76L1046.67 418.26L981.71 380.76L981.71 305.76zM1046.67 493.26L1111.62 530.76L1111.62 605.76L1046.67 643.26L981.71 605.76L981.71 530.76zM1111.62 155.76L1176.57 193.26L1176.57 268.26L1111.62 305.76L1046.67 268.26L1046.67 193.26zM1176.57 268.26L1241.53 305.76L1241.53 380.76L1176.57 418.26L1111.62 380.76L1111.62 305.76zM1111.62 380.76L1176.57 418.26L1176.57 493.26L1111.62 530.76L1046.67 493.26L1046.67 418.26zM1241.53 -69.24L1306.48 -31.74L1306.48 43.26L1241.53 80.76L1176.57 43.26L1176.57 -31.74zM1306.48 493.26L1371.43 530.76L1371.43 605.76L1306.48 643.26L1241.53 605.76L1241.53 530.76zM1371.43 155.76L1436.39 193.26L1436.39 268.26L1371.43 305.76L1306.48 268.26L1306.48 193.26zM1371.43 380.76L1436.39 418.26L1436.39 493.26L1371.43 530.76L1306.48 493.26L1306.48 418.26zM1436.39 493.26L1501.34 530.76L1501.34 605.76L1436.39 643.26L1371.43 605.76L1371.43 530.76zM1501.34 -69.24L1566.3 -31.74L1566.3 43.26L1501.34 80.76L1436.39 43.26L1436.39 -31.74zM1566.3 43.26L1631.25 80.76L1631.25 155.76L1566.3 193.26L1501.34 155.76L1501.34 80.76zM1566.3 268.26L1631.25 305.76L1631.25 380.76L1566.3 418.26L1501.34 380.76L1501.34 305.76zM1501.34 380.76L1566.3 418.26L1566.3 493.26L1501.34 530.76L1436.39 493.26L1436.39 418.26z" stroke="#03305d" stroke-width="2"></path><path d="M64.86 -69.24 a7.5 7.5 0 1 0 15 0 a7.5 7.5 0 1 0 -15 0zM129.81 -31.74 a7.5 7.5 0 1 0 15 0 a7.5 7.5 0 1 0 -15 0zM129.81 43.26 a7.5 7.5 0 1 0 15 0 a7.5 7.5 0 1 0 -15 0zM64.86 80.76 a7.5 7.5 0 1 0 15 0 a7.5 7.5 0 1 0 -15 0zM-0.09 43.26 a7.5 7.5 0 1 0 15 0 a7.5 7.5 0 1 0 -15 0zM-0.09 -31.74 a7.5 7.5 0 1 0 15 0 a7.5 7.5 0 1 0 -15 0zM64.86 155.76 a7.5 7.5 0 1 0 15 0 a7.5 7.5 0 1 0 -15 0zM129.81 193.26 a7.5 7.5 0 1 0 15 0 a7.5 7.5 0 1 0 -15 0zM129.81 268.26 a7.5 7.5 0 1 0 15 0 a7.5 7.5 0 1 0 -15 0zM64.86 305.76 a7.5 7.5 0 1 0 15 0 a7.5 7.5 0 1 0 -15 0zM-0.09 268.26 a7.5 7.5 0 1 0 15 0 a7.5 7.5 0 1 0 -15 0zM-0.09 193.26 a7.5 7.5 0 1 0 15 0 a7.5 7.5 0 1 0 -15 0zM194.77 305.76 a7.5 7.5 0 1 0 15 0 a7.5 7.5 0 1 0 -15 0zM194.77 380.76 a7.5 7.5 0 1 0 15 0 a7.5 7.5 0 1 0 -15 0zM129.81 418.26 a7.5 7.5 0 1 0 15 0 a7.5 7.5 0 1 0 -15 0zM64.86 380.76 a7.5 7.5 0 1 0 15 0 a7.5 7.5 0 1 0 -15 0zM129.81 493.26 a7.5 7.5 0 1 0 15 0 a7.5 7.5 0 1 0 -15 0zM64.86 530.76 a7.5 7.5 0 1 0 15 0 a7.5 7.5 0 1 0 -15 0zM-0.09 493.26 a7.5 7.5 0 1 0 15 0 a7.5 7.5 0 1 0 -15 0zM-0.09 418.26 a7.5 7.5 0 1 0 15 0 a7.5 7.5 0 1 0 -15 0zM194.77 -69.24 a7.5 7.5 0 1 0 15 0 a7.5 7.5 0 1 0 -15 0zM259.72 -31.74 a7.5 7.5 0 1 0 15 0 a7.5 7.5 0 1 0 -15 0zM259.72 43.26 a7.5 7.5 0 1 0 15 0 a7.5 7.5 0 1 0 -15 0zM194.77 80.76 a7.5 7.5 0 1 0 15 0 a7.5 7.5 0 1 0 -15 0zM324.68 80.76 a7.5 7.5 0 1 0 15 0 a7.5 7.5 0 1 0 -15 0zM324.68 155.76 a7.5 7.5 0 1 0 15 0 a7.5 7.5 0 1 0 -15 0zM259.72 193.26 a7.5 7.5 0 1 0 15 0 a7.5 7.5 0 1 0 -15 0zM194.77 155.76 a7.5 7.5 0 1 0 15 0 a7.5 7.5 0 1 0 -15 0zM259.72 268.26 a7.5 7.5 0 1 0 15 0 a7.5 7.5 0 1 0 -15 0zM324.68 305.76 a7.5 7.5 0 1 0 15 0 a7.5 7.5 0 1 0 -15 0zM324.68 380.76 a7.5 7.5 0 1 0 15 0 a7.5 7.5 0 1 0 -15 0zM259.72 418.26 a7.5 7.5 0 1 0 15 0 a7.5 7.5 0 1 0 -15 0zM259.72 493.26 a7.5 7.5 0 1 0 15 0 a7.5 7.5 0 1 0 -15 0zM194.77 530.76 a7.5 7.5 0 1 0 15 0 a7.5 7.5 0 1 0 -15 0zM389.63 43.26 a7.5 7.5 0 1 0 15 0 a7.5 7.5 0 1 0 -15 0zM454.58 80.76 a7.5 7.5 0 1 0 15 0 a7.5 7.5 0 1 0 -15 0zM454.58 155.76 a7.5 7.5 0 1 0 15 0 a7.5 7.5 0 1 0 -15 0zM389.63 193.26 a7.5 7.5 0 1 0 15 0 a7.5 7.5 0 1 0 -15 0zM389.63 268.26 a7.5 7.5 0 1 0 15 0 a7.5 7.5 0 1 0 -15 0zM389.63 493.26 a7.5 7.5 0 1 0 15 0 a7.5 7.5 0 1 0 -15 0zM454.58 530.76 a7.5 7.5 0 1 0 15 0 a7.5 7.5 0 1 0 -15 0zM454.58 605.76 a7.5 7.5 0 1 0 15 0 a7.5 7.5 0 1 0 -15 0zM389.63 643.26 a7.5 7.5 0 1 0 15 0 a7.5 7.5 0 1 0 -15 0zM324.68 605.76 a7.5 7.5 0 1 0 15 0 a7.5 7.5 0 1 0 -15 0zM324.68 530.76 a7.5 7.5 0 1 0 15 0 a7.5 7.5 0 1 0 -15 0zM454.58 -69.24 a7.5 7.5 0 1 0 15 0 a7.5 7.5 0 1 0 -15 0zM519.54 -31.74 a7.5 7.5 0 1 0 15 0 a7.5 7.5 0 1 0 -15 0zM519.54 43.26 a7.5 7.5 0 1 0 15 0 a7.5 7.5 0 1 0 -15 0zM389.63 -31.74 a7.5 7.5 0 1 0 15 0 a7.5 7.5 0 1 0 -15 0zM519.54 193.26 a7.5 7.5 0 1 0 15 0 a7.5 7.5 0 1 0 -15 0zM519.54 268.26 a7.5 7.5 0 1 0 15 0 a7.5 7.5 0 1 0 -15 0zM454.58 305.76 a7.5 7.5 0 1 0 15 0 a7.5 7.5 0 1 0 -15 0zM454.58 380.76 a7.5 7.5 0 1 0 15 0 a7.5 7.5 0 1 0 -15 0zM519.54 418.26 a7.5 7.5 0 1 0 15 0 a7.5 7.5 0 1 0 -15 0zM519.54 493.26 a7.5 7.5 0 1 0 15 0 a7.5 7.5 0 1 0 -15 0zM389.63 418.26 a7.5 7.5 0 1 0 15 0 a7.5 7.5 0 1 0 -15 0zM649.44 268.26 a7.5 7.5 0 1 0 15 0 a7.5 7.5 0 1 0 -15 0zM714.4 305.76 a7.5 7.5 0 1 0 15 0 a7.5 7.5 0 1 0 -15 0zM714.4 380.76 a7.5 7.5 0 1 0 15 0 a7.5 7.5 0 1 0 -15 0zM649.44 418.26 a7.5 7.5 0 1 0 15 0 a7.5 7.5 0 1 0 -15 0zM584.49 380.76 a7.5 7.5 0 1 0 15 0 a7.5 7.5 0 1 0 -15 0zM584.49 305.76 a7.5 7.5 0 1 0 15 0 a7.5 7.5 0 1 0 -15 0zM649.44 493.26 a7.5 7.5 0 1 0 15 0 a7.5 7.5 0 1 0 -15 0zM714.4 530.76 a7.5 7.5 0 1 0 15 0 a7.5 7.5 0 1 0 -15 0zM714.4 605.76 a7.5 7.5 0 1 0 15 0 a7.5 7.5 0 1 0 -15 0zM649.44 643.26 a7.5 7.5 0 1 0 15 0 a7.5 7.5 0 1 0 -15 0zM584.49 605.76 a7.5 7.5 0 1 0 15 0 a7.5 7.5 0 1 0 -15 0zM584.49 530.76 a7.5 7.5 0 1 0 15 0 a7.5 7.5 0 1 0 -15 0zM779.35 493.26 a7.5 7.5 0 1 0 15 0 a7.5 7.5 0 1 0 -15 0zM844.31 530.76 a7.5 7.5 0 1 0 15 0 a7.5 7.5 0 1 0 -15 0zM844.31 605.76 a7.5 7.5 0 1 0 15 0 a7.5 7.5 0 1 0 -15 0zM779.35 643.26 a7.5 7.5 0 1 0 15 0 a7.5 7.5 0 1 0 -15 0zM844.3 155.76 a7.5 7.5 0 1 0 15 0 a7.5 7.5 0 1 0 -15 0zM909.26 193.26 a7.5 7.5 0 1 0 15 0 a7.5 7.5 0 1 0 -15 0zM909.26 268.26 a7.5 7.5 0 1 0 15 0 a7.5 7.5 0 1 0 -15 0zM844.3 305.76 a7.5 7.5 0 1 0 15 0 a7.5 7.5 0 1 0 -15 0zM779.35 268.26 a7.5 7.5 0 1 0 15 0 a7.5 7.5 0 1 0 -15 0zM779.35 193.26 a7.5 7.5 0 1 0 15 0 a7.5 7.5 0 1 0 -15 0zM909.26 493.26 a7.5 7.5 0 1 0 15 0 a7.5 7.5 0 1 0 -15 0zM974.21 530.76 a7.5 7.5 0 1 0 15 0 a7.5 7.5 0 1 0 -15 0zM974.21 605.76 a7.5 7.5 0 1 0 15 0 a7.5 7.5 0 1 0 -15 0zM909.26 643.26 a7.5 7.5 0 1 0 15 0 a7.5 7.5 0 1 0 -15 0zM844.3 605.76 a7.5 7.5 0 1 0 15 0 a7.5 7.5 0 1 0 -15 0zM844.3 530.76 a7.5 7.5 0 1 0 15 0 a7.5 7.5 0 1 0 -15 0zM1039.17 43.26 a7.5 7.5 0 1 0 15 0 a7.5 7.5 0 1 0 -15 0zM1104.12 80.76 a7.5 7.5 0 1 0 15 0 a7.5 7.5 0 1 0 -15 0zM1104.12 155.76 a7.5 7.5 0 1 0 15 0 a7.5 7.5 0 1 0 -15 0zM1039.17 193.26 a7.5 7.5 0 1 0 15 0 a7.5 7.5 0 1 0 -15 0zM974.21 155.76 a7.5 7.5 0 1 0 15 0 a7.5 7.5 0 1 0 -15 0zM974.21 80.76 a7.5 7.5 0 1 0 15 0 a7.5 7.5 0 1 0 -15 0zM1039.17 268.26 a7.5 7.5 0 1 0 15 0 a7.5 7.5 0 1 0 -15 0zM974.21 305.76 a7.5 7.5 0 1 0 15 0 a7.5 7.5 0 1 0 -15 0zM1104.12 305.76 a7.5 7.5 0 1 0 15 0 a7.5 7.5 0 1 0 -15 0zM1104.12 380.76 a7.5 7.5 0 1 0 15 0 a7.5 7.5 0 1 0 -15 0zM1039.17 418.26 a7.5 7.5 0 1 0 15 0 a7.5 7.5 0 1 0 -15 0zM974.21 380.76 a7.5 7.5 0 1 0 15 0 a7.5 7.5 0 1 0 -15 0zM1039.17 493.26 a7.5 7.5 0 1 0 15 0 a7.5 7.5 0 1 0 -15 0zM1104.12 530.76 a7.5 7.5 0 1 0 15 0 a7.5 7.5 0 1 0 -15 0zM1104.12 605.76 a7.5 7.5 0 1 0 15 0 a7.5 7.5 0 1 0 -15 0zM1039.17 643.26 a7.5 7.5 0 1 0 15 0 a7.5 7.5 0 1 0 -15 0zM1169.07 193.26 a7.5 7.5 0 1 0 15 0 a7.5 7.5 0 1 0 -15 0zM1169.07 268.26 a7.5 7.5 0 1 0 15 0 a7.5 7.5 0 1 0 -15 0zM1234.03 305.76 a7.5 7.5 0 1 0 15 0 a7.5 7.5 0 1 0 -15 0zM1234.03 380.76 a7.5 7.5 0 1 0 15 0 a7.5 7.5 0 1 0 -15 0zM1169.07 418.26 a7.5 7.5 0 1 0 15 0 a7.5 7.5 0 1 0 -15 0zM1169.07 493.26 a7.5 7.5 0 1 0 15 0 a7.5 7.5 0 1 0 -15 0zM1234.03 -69.24 a7.5 7.5 0 1 0 15 0 a7.5 7.5 0 1 0 -15 0zM1298.98 -31.74 a7.5 7.5 0 1 0 15 0 a7.5 7.5 0 1 0 -15 0zM1298.98 43.26 a7.5 7.5 0 1 0 15 0 a7.5 7.5 0 1 0 -15 0zM1234.03 80.76 a7.5 7.5 0 1 0 15 0 a7.5 7.5 0 1 0 -15 0zM1169.07 43.26 a7.5 7.5 0 1 0 15 0 a7.5 7.5 0 1 0 -15 0zM1169.07 -31.74 a7.5 7.5 0 1 0 15 0 a7.5 7.5 0 1 0 -15 0zM1298.98 493.26 a7.5 7.5 0 1 0 15 0 a7.5 7.5 0 1 0 -15 0zM1363.93 530.76 a7.5 7.5 0 1 0 15 0 a7.5 7.5 0 1 0 -15 0zM1363.93 605.76 a7.5 7.5 0 1 0 15 0 a7.5 7.5 0 1 0 -15 0zM1298.98 643.26 a7.5 7.5 0 1 0 15 0 a7.5 7.5 0 1 0 -15 0zM1234.03 605.76 a7.5 7.5 0 1 0 15 0 a7.5 7.5 0 1 0 -15 0zM1234.03 530.76 a7.5 7.5 0 1 0 15 0 a7.5 7.5 0 1 0 -15 0zM1363.93 155.76 a7.5 7.5 0 1 0 15 0 a7.5 7.5 0 1 0 -15 0zM1428.89 193.26 a7.5 7.5 0 1 0 15 0 a7.5 7.5 0 1 0 -15 0zM1428.89 268.26 a7.5 7.5 0 1 0 15 0 a7.5 7.5 0 1 0 -15 0zM1363.93 305.76 a7.5 7.5 0 1 0 15 0 a7.5 7.5 0 1 0 -15 0zM1298.98 268.26 a7.5 7.5 0 1 0 15 0 a7.5 7.5 0 1 0 -15 0zM1298.98 193.26 a7.5 7.5 0 1 0 15 0 a7.5 7.5 0 1 0 -15 0zM1363.93 380.76 a7.5 7.5 0 1 0 15 0 a7.5 7.5 0 1 0 -15 0zM1428.89 418.26 a7.5 7.5 0 1 0 15 0 a7.5 7.5 0 1 0 -15 0zM1428.89 493.26 a7.5 7.5 0 1 0 15 0 a7.5 7.5 0 1 0 -15 0zM1298.98 418.26 a7.5 7.5 0 1 0 15 0 a7.5 7.5 0 1 0 -15 0zM1493.84 530.76 a7.5 7.5 0 1 0 15 0 a7.5 7.5 0 1 0 -15 0zM1493.84 605.76 a7.5 7.5 0 1 0 15 0 a7.5 7.5 0 1 0 -15 0zM1428.89 643.26 a7.5 7.5 0 1 0 15 0 a7.5 7.5 0 1 0 -15 0zM1493.84 -69.24 a7.5 7.5 0 1 0 15 0 a7.5 7.5 0 1 0 -15 0zM1558.8 -31.74 a7.5 7.5 0 1 0 15 0 a7.5 7.5 0 1 0 -15 0zM1558.8 43.26 a7.5 7.5 0 1 0 15 0 a7.5 7.5 0 1 0 -15 0zM1493.84 80.76 a7.5 7.5 0 1 0 15 0 a7.5 7.5 0 1 0 -15 0zM1428.89 43.26 a7.5 7.5 0 1 0 15 0 a7.5 7.5 0 1 0 -15 0zM1428.89 -31.74 a7.5 7.5 0 1 0 15 0 a7.5 7.5 0 1 0 -15 0zM1623.75 80.76 a7.5 7.5 0 1 0 15 0 a7.5 7.5 0 1 0 -15 0zM1623.75 155.76 a7.5 7.5 0 1 0 15 0 a7.5 7.5 0 1 0 -15 0zM1558.8 193.26 a7.5 7.5 0 1 0 15 0 a7.5 7.5 0 1 0 -15 0zM1493.84 155.76 a7.5 7.5 0 1 0 15 0 a7.5 7.5 0 1 0 -15 0zM1558.8 268.26 a7.5 7.5 0 1 0 15 0 a7.5 7.5 0 1 0 -15 0zM1623.75 305.76 a7.5 7.5 0 1 0 15 0 a7.5 7.5 0 1 0 -15 0zM1623.75 380.76 a7.5 7.5 0 1 0 15 0 a7.5 7.5 0 1 0 -15 0zM1558.8 418.26 a7.5 7.5 0 1 0 15 0 a7.5 7.5 0 1 0 -15 0zM1493.84 380.76 a7.5 7.5 0 1 0 15 0 a7.5 7.5 0 1 0 -15 0zM1493.84 305.76 a7.5 7.5 0 1 0 15 0 a7.5 7.5 0 1 0 -15 0zM1558.8 493.26 a7.5 7.5 0 1 0 15 0 a7.5 7.5 0 1 0 -15 0z" fill="#03305d"></path><path d="M23.51 -43.84L66.81 -18.84L66.81 31.16L23.51 56.16L-19.79 31.16L-19.79 -18.84zM66.81 481.16L110.12 506.16L110.12 556.16L66.81 581.16L23.51 556.16L23.51 506.16zM110.12 -43.84L153.42 -18.84L153.42 31.16L110.12 56.16L66.81 31.16L66.81 -18.84zM153.42 181.16L196.72 206.16L196.72 256.16L153.42 281.16L110.12 256.16L110.12 206.16zM110.12 256.16L153.42 281.16L153.42 331.16L110.12 356.16L66.81 331.16L66.81 281.16zM153.42 331.16L196.72 356.16L196.72 406.16L153.42 431.16L110.12 406.16L110.12 356.16zM153.42 481.16L196.72 506.16L196.72 556.16L153.42 581.16L110.12 556.16L110.12 506.16zM240.02 31.16L283.32 56.16L283.32 106.16L240.02 131.16L196.72 106.16L196.72 56.16zM240.02 181.16L283.32 206.16L283.32 256.16L240.02 281.16L196.72 256.16L196.72 206.16zM196.72 406.16L240.02 431.16L240.02 481.16L196.72 506.16L153.42 481.16L153.42 431.16zM240.02 481.16L283.32 506.16L283.32 556.16L240.02 581.16L196.72 556.16L196.72 506.16zM326.63 181.16L369.93 206.16L369.93 256.16L326.63 281.16L283.32 256.16L283.32 206.16zM369.93 106.16L413.23 131.16L413.23 181.16L369.93 206.16L326.63 181.16L326.63 131.16zM456.54 -43.84L499.84 -18.84L499.84 31.16L456.54 56.16L413.23 31.16L413.23 -18.84zM499.84 331.16L543.14 356.16L543.14 406.16L499.84 431.16L456.54 406.16L456.54 356.16zM499.84 481.16L543.14 506.16L543.14 556.16L499.84 581.16L456.54 556.16L456.54 506.16zM586.44 181.16L629.75 206.16L629.75 256.16L586.44 281.16L543.14 256.16L543.14 206.16zM543.14 256.16L586.44 281.16L586.44 331.16L543.14 356.16L499.84 331.16L499.84 281.16zM586.44 331.16L629.75 356.16L629.75 406.16L586.44 431.16L543.14 406.16L543.14 356.16zM629.75 256.16L673.05 281.16L673.05 331.16L629.75 356.16L586.44 331.16L586.44 281.16zM629.75 406.16L673.05 431.16L673.05 481.16L629.75 506.16L586.44 481.16L586.44 431.16zM673.05 481.16L716.35 506.16L716.35 556.16L673.05 581.16L629.75 556.16L629.75 506.16zM759.65 31.16L802.96 56.16L802.96 106.16L759.65 131.16L716.35 106.16L716.35 56.16zM759.65 181.16L802.96 206.16L802.96 256.16L759.65 281.16L716.35 256.16L716.35 206.16zM759.65 481.16L802.96 506.16L802.96 556.16L759.65 581.16L716.35 556.16L716.35 506.16zM802.96 406.16L846.26 431.16L846.26 481.16L802.96 506.16L759.65 481.16L759.65 431.16zM932.86 181.16L976.17 206.16L976.17 256.16L932.86 281.16L889.56 256.16L889.56 206.16zM889.56 256.16L932.86 281.16L932.86 331.16L889.56 356.16L846.26 331.16L846.26 281.16zM932.86 481.16L976.17 506.16L976.17 556.16L932.86 581.16L889.56 556.16L889.56 506.16zM976.17 -43.84L1019.47 -18.84L1019.47 31.16L976.17 56.16L932.86 31.16L932.86 -18.84zM1019.47 31.16L1062.77 56.16L1062.77 106.16L1019.47 131.16L976.17 106.16L976.17 56.16zM976.17 106.16L1019.47 131.16L1019.47 181.16L976.17 206.16L932.86 181.16L932.86 131.16zM1106.07 181.16L1149.38 206.16L1149.38 256.16L1106.07 281.16L1062.77 256.16L1062.77 206.16zM1149.38 -43.84L1192.68 -18.84L1192.68 31.16L1149.38 56.16L1106.07 31.16L1106.07 -18.84zM1192.68 31.16L1235.98 56.16L1235.98 106.16L1192.68 131.16L1149.38 106.16L1149.38 56.16zM1192.68 481.16L1235.98 506.16L1235.98 556.16L1192.68 581.16L1149.38 556.16L1149.38 506.16zM1235.98 106.16L1279.28 131.16L1279.28 181.16L1235.98 206.16L1192.68 181.16L1192.68 131.16zM1279.28 181.16L1322.59 206.16L1322.59 256.16L1279.28 281.16L1235.98 256.16L1235.98 206.16zM1365.89 481.16L1409.19 506.16L1409.19 556.16L1365.89 581.16L1322.59 556.16L1322.59 506.16zM1409.19 -43.84L1452.49 -18.84L1452.49 31.16L1409.19 56.16L1365.89 31.16L1365.89 -18.84zM1452.49 31.16L1495.8 56.16L1495.8 106.16L1452.49 131.16L1409.19 106.16L1409.19 56.16z" stroke="rgba(6, 80, 156, 0.93)" stroke-width="2"></path></g><defs><mask id="SvgjsMask1000"><rect width="1440" height="560" fill="#ffffff"></rect></mask></defs></svg>