<svg xmlns="http://www.w3.org/2000/svg" version="1.1" xmlns:xlink="http://www.w3.org/1999/xlink" xmlns:svgjs="http://svgjs.com/svgjs" width="1440" height="560" preserveAspectRatio="none" viewBox="0 0 1440 560"><g mask="url(&quot;#SvgjsMask1000&quot;)" fill="none"><rect width="1440" height="560" x="0" y="0" fill="#0e2a47"></rect><path d="M-90.08 403.38L-90.08 403.38" stroke="#132e65" stroke-width="1.5"></path><path d="M-90.08 403.38L-62.54 555.38" stroke="#132e65" stroke-width="1.5"></path><path d="M-90.08 403.38L55.95 501.62" stroke="#132e65" stroke-width="1.5"></path><path d="M-90.08 403.38L77.49 338.26" stroke="#132e65" stroke-width="1.5"></path><path d="M-90.08 403.38L-83.95 705.69" stroke="#132e65" stroke-width="1.5"></path><path d="M-90.08 403.38L197.61 512.72" stroke="#132e65" stroke-width="1.5"></path><path d="M-90.08 403.38L98.98 663.9" stroke="#132e65" stroke-width="1.5"></path><path d="M-62.54 555.38L-62.54 555.38" stroke="#132e65" stroke-width="1.5"></path><path d="M-62.54 555.38L55.95 501.62" stroke="#132e65" stroke-width="1.5"></path><path d="M-83.95 705.69L-83.95 705.69" stroke="#132e65" stroke-width="1.5"></path><path d="M-83.95 705.69L-62.54 555.38" stroke="#132e65" stroke-width="1.5"></path><path d="M77.49 338.26L77.49 338.26" stroke="#132e65" stroke-width="1.5"></path><path d="M77.49 338.26L226.88 343.8" stroke="#132e65" stroke-width="1.5"></path><path d="M77.49 338.26L55.95 501.62" stroke="#132e65" stroke-width="1.5"></path><path d="M77.49 338.26L197.61 512.72" stroke="#132e65" stroke-width="1.5"></path><path d="M77.49 338.26L-62.54 555.38" stroke="#132e65" stroke-width="1.5"></path><path d="M77.49 338.26L339.23 338.39" stroke="#132e65" stroke-width="1.5"></path><path d="M55.95 501.62L55.95 501.62" stroke="#132e65" stroke-width="1.5"></path><path d="M55.95 501.62L197.61 512.72" stroke="#132e65" stroke-width="1.5"></path><path d="M55.95 501.62L98.98 663.9" stroke="#132e65" stroke-width="1.5"></path><path d="M98.98 663.9L98.98 663.9" stroke="#132e65" stroke-width="1.5"></path><path d="M98.98 663.9L248.55 680.52" stroke="#132e65" stroke-width="1.5"></path><path d="M226.88 343.8L226.88 343.8" stroke="#132e65" stroke-width="1.5"></path><path d="M226.88 343.8L339.23 338.39" stroke="#132e65" stroke-width="1.5"></path><path d="M226.88 343.8L197.61 512.72" stroke="#132e65" stroke-width="1.5"></path><path d="M197.61 512.72L197.61 512.72" stroke="#132e65" stroke-width="1.5"></path><path d="M197.61 512.72L356.85 514.48" stroke="#132e65" stroke-width="1.5"></path><path d="M197.61 512.72L248.55 680.52" stroke="#132e65" stroke-width="1.5"></path><path d="M197.61 512.72L98.98 663.9" stroke="#132e65" stroke-width="1.5"></path><path d="M248.55 680.52L248.55 680.52" stroke="#132e65" stroke-width="1.5"></path><path d="M248.55 680.52L402.05 698.54" stroke="#132e65" stroke-width="1.5"></path><path d="M248.55 680.52L356.85 514.48" stroke="#132e65" stroke-width="1.5"></path><path d="M248.55 680.52L55.95 501.62" stroke="#132e65" stroke-width="1.5"></path><path d="M339.23 338.39L339.23 338.39" stroke="#132e65" stroke-width="1.5"></path><path d="M339.23 338.39L356.85 514.48" stroke="#132e65" stroke-width="1.5"></path><path d="M356.85 514.48L356.85 514.48" stroke="#132e65" stroke-width="1.5"></path><path d="M356.85 514.48L523.08 557.84" stroke="#132e65" stroke-width="1.5"></path><path d="M402.05 698.54L402.05 698.54" stroke="#132e65" stroke-width="1.5"></path><path d="M402.05 698.54L561.37 669.8" stroke="#132e65" stroke-width="1.5"></path><path d="M402.05 698.54L523.08 557.84" stroke="#132e65" stroke-width="1.5"></path><path d="M402.05 698.54L356.85 514.48" stroke="#132e65" stroke-width="1.5"></path><path d="M402.05 698.54L655.9 675" stroke="#132e65" stroke-width="1.5"></path><path d="M402.05 698.54L197.61 512.72" stroke="#132e65" stroke-width="1.5"></path><path d="M521.28 382.51L521.28 382.51" stroke="#132e65" stroke-width="1.5"></path><path d="M521.28 382.51L676.08 350.31" stroke="#132e65" stroke-width="1.5"></path><path d="M521.28 382.51L523.08 557.84" stroke="#132e65" stroke-width="1.5"></path><path d="M521.28 382.51L339.23 338.39" stroke="#132e65" stroke-width="1.5"></path><path d="M523.08 557.84L523.08 557.84" stroke="#132e65" stroke-width="1.5"></path><path d="M523.08 557.84L561.37 669.8" stroke="#132e65" stroke-width="1.5"></path><path d="M523.08 557.84L655.9 675" stroke="#132e65" stroke-width="1.5"></path><path d="M523.08 557.84L708.19 489.53" stroke="#132e65" stroke-width="1.5"></path><path d="M561.37 669.8L561.37 669.8" stroke="#132e65" stroke-width="1.5"></path><path d="M561.37 669.8L655.9 675" stroke="#132e65" stroke-width="1.5"></path><path d="M561.37 669.8L708.19 489.53" stroke="#132e65" stroke-width="1.5"></path><path d="M561.37 669.8L356.85 514.48" stroke="#132e65" stroke-width="1.5"></path><path d="M671.48 227.07L671.48 227.07" stroke="#132e65" stroke-width="1.5"></path><path d="M671.48 227.07L676.08 350.31" stroke="#132e65" stroke-width="1.5"></path><path d="M671.48 227.07L804.4 193.34" stroke="#132e65" stroke-width="1.5"></path><path d="M671.48 227.07L791.65 395.91" stroke="#132e65" stroke-width="1.5"></path><path d="M671.48 227.07L521.28 382.51" stroke="#132e65" stroke-width="1.5"></path><path d="M676.08 350.31L676.08 350.31" stroke="#132e65" stroke-width="1.5"></path><path d="M676.08 350.31L791.65 395.91" stroke="#132e65" stroke-width="1.5"></path><path d="M676.08 350.31L708.19 489.53" stroke="#132e65" stroke-width="1.5"></path><path d="M676.08 350.31L804.4 193.34" stroke="#132e65" stroke-width="1.5"></path><path d="M676.08 350.31L523.08 557.84" stroke="#132e65" stroke-width="1.5"></path><path d="M708.19 489.53L708.19 489.53" stroke="#132e65" stroke-width="1.5"></path><path d="M708.19 489.53L791.65 395.91" stroke="#132e65" stroke-width="1.5"></path><path d="M708.19 489.53L827.36 560.95" stroke="#132e65" stroke-width="1.5"></path><path d="M708.19 489.53L655.9 675" stroke="#132e65" stroke-width="1.5"></path><path d="M655.9 675L655.9 675" stroke="#132e65" stroke-width="1.5"></path><path d="M655.9 675L827.04 650.03" stroke="#132e65" stroke-width="1.5"></path><path d="M804.4 193.34L804.4 193.34" stroke="#132e65" stroke-width="1.5"></path><path d="M804.4 193.34L988.09 256.49" stroke="#132e65" stroke-width="1.5"></path><path d="M804.4 193.34L791.65 395.91" stroke="#132e65" stroke-width="1.5"></path><path d="M791.65 395.91L791.65 395.91" stroke="#132e65" stroke-width="1.5"></path><path d="M791.65 395.91L827.36 560.95" stroke="#132e65" stroke-width="1.5"></path><path d="M827.36 560.95L827.36 560.95" stroke="#132e65" stroke-width="1.5"></path><path d="M827.36 560.95L827.04 650.03" stroke="#132e65" stroke-width="1.5"></path><path d="M827.36 560.95L966.14 560.89" stroke="#132e65" stroke-width="1.5"></path><path d="M827.04 650.03L827.04 650.03" stroke="#132e65" stroke-width="1.5"></path><path d="M827.04 650.03L966.14 560.89" stroke="#132e65" stroke-width="1.5"></path><path d="M947.13 -110.74L947.13 -110.74" stroke="#132e65" stroke-width="1.5"></path><path d="M947.13 -110.74L1161.8 -92.88" stroke="#132e65" stroke-width="1.5"></path><path d="M947.13 -110.74L1100.11 76" stroke="#132e65" stroke-width="1.5"></path><path d="M947.13 -110.74L804.4 193.34" stroke="#132e65" stroke-width="1.5"></path><path d="M947.13 -110.74L988.09 256.49" stroke="#132e65" stroke-width="1.5"></path><path d="M947.13 -110.74L1283.46 88.52" stroke="#132e65" stroke-width="1.5"></path><path d="M947.13 -110.74L1152.47 246.21" stroke="#132e65" stroke-width="1.5"></path><path d="M988.09 256.49L988.09 256.49" stroke="#132e65" stroke-width="1.5"></path><path d="M988.09 256.49L1152.47 246.21" stroke="#132e65" stroke-width="1.5"></path><path d="M988.09 256.49L1125.11 360.82" stroke="#132e65" stroke-width="1.5"></path><path d="M966.14 560.89L966.14 560.89" stroke="#132e65" stroke-width="1.5"></path><path d="M966.14 560.89L1005.29 677.08" stroke="#132e65" stroke-width="1.5"></path><path d="M966.14 560.89L1137.14 515.4" stroke="#132e65" stroke-width="1.5"></path><path d="M966.14 560.89L1118.58 650.82" stroke="#132e65" stroke-width="1.5"></path><path d="M1005.29 677.08L1005.29 677.08" stroke="#132e65" stroke-width="1.5"></path><path d="M1005.29 677.08L1118.58 650.82" stroke="#132e65" stroke-width="1.5"></path><path d="M1161.8 -92.88L1161.8 -92.88" stroke="#132e65" stroke-width="1.5"></path><path d="M1161.8 -92.88L1100.11 76" stroke="#132e65" stroke-width="1.5"></path><path d="M1161.8 -92.88L1283.46 88.52" stroke="#132e65" stroke-width="1.5"></path><path d="M1161.8 -92.88L1425.99 -51.85" stroke="#132e65" stroke-width="1.5"></path><path d="M1161.8 -92.88L1286.99 194.27" stroke="#132e65" stroke-width="1.5"></path><path d="M1161.8 -92.88L1437.95 96.55" stroke="#132e65" stroke-width="1.5"></path><path d="M1100.11 76L1100.11 76" stroke="#132e65" stroke-width="1.5"></path><path d="M1100.11 76L1152.47 246.21" stroke="#132e65" stroke-width="1.5"></path><path d="M1100.11 76L1283.46 88.52" stroke="#132e65" stroke-width="1.5"></path><path d="M1100.11 76L988.09 256.49" stroke="#132e65" stroke-width="1.5"></path><path d="M1100.11 76L1286.99 194.27" stroke="#132e65" stroke-width="1.5"></path><path d="M1152.47 246.21L1152.47 246.21" stroke="#132e65" stroke-width="1.5"></path><path d="M1152.47 246.21L1125.11 360.82" stroke="#132e65" stroke-width="1.5"></path><path d="M1152.47 246.21L1286.99 194.27" stroke="#132e65" stroke-width="1.5"></path><path d="M1125.11 360.82L1125.11 360.82" stroke="#132e65" stroke-width="1.5"></path><path d="M1125.11 360.82L1256.85 367.76" stroke="#132e65" stroke-width="1.5"></path><path d="M1125.11 360.82L1137.14 515.4" stroke="#132e65" stroke-width="1.5"></path><path d="M1125.11 360.82L1239.75 529.86" stroke="#132e65" stroke-width="1.5"></path><path d="M1125.11 360.82L1286.99 194.27" stroke="#132e65" stroke-width="1.5"></path><path d="M1137.14 515.4L1137.14 515.4" stroke="#132e65" stroke-width="1.5"></path><path d="M1137.14 515.4L1239.75 529.86" stroke="#132e65" stroke-width="1.5"></path><path d="M1137.14 515.4L1118.58 650.82" stroke="#132e65" stroke-width="1.5"></path><path d="M1137.14 515.4L1256.85 367.76" stroke="#132e65" stroke-width="1.5"></path><path d="M1118.58 650.82L1118.58 650.82" stroke="#132e65" stroke-width="1.5"></path><path d="M1118.58 650.82L1282.07 677.22" stroke="#132e65" stroke-width="1.5"></path><path d="M1118.58 650.82L1239.75 529.86" stroke="#132e65" stroke-width="1.5"></path><path d="M1283.46 88.52L1283.46 88.52" stroke="#132e65" stroke-width="1.5"></path><path d="M1283.46 88.52L1286.99 194.27" stroke="#132e65" stroke-width="1.5"></path><path d="M1283.46 88.52L1437.95 96.55" stroke="#132e65" stroke-width="1.5"></path><path d="M1286.99 194.27L1286.99 194.27" stroke="#132e65" stroke-width="1.5"></path><path d="M1286.99 194.27L1399.17 243.95" stroke="#132e65" stroke-width="1.5"></path><path d="M1286.99 194.27L1256.85 367.76" stroke="#132e65" stroke-width="1.5"></path><path d="M1286.99 194.27L1437.95 96.55" stroke="#132e65" stroke-width="1.5"></path><path d="M1256.85 367.76L1256.85 367.76" stroke="#132e65" stroke-width="1.5"></path><path d="M1256.85 367.76L1152.47 246.21" stroke="#132e65" stroke-width="1.5"></path><path d="M1239.75 529.86L1239.75 529.86" stroke="#132e65" stroke-width="1.5"></path><path d="M1239.75 529.86L1282.07 677.22" stroke="#132e65" stroke-width="1.5"></path><path d="M1239.75 529.86L1256.85 367.76" stroke="#132e65" stroke-width="1.5"></path><path d="M1282.07 677.22L1282.07 677.22" stroke="#132e65" stroke-width="1.5"></path><path d="M1425.99 -51.85L1425.99 -51.85" stroke="#132e65" stroke-width="1.5"></path><path d="M1425.99 -51.85L1437.95 96.55" stroke="#132e65" stroke-width="1.5"></path><path d="M1425.99 -51.85L1590.19 -83.4" stroke="#132e65" stroke-width="1.5"></path><path d="M1425.99 -51.85L1283.46 88.52" stroke="#132e65" stroke-width="1.5"></path><path d="M1425.99 -51.85L1604.76 111.06" stroke="#132e65" stroke-width="1.5"></path><path d="M1437.95 96.55L1437.95 96.55" stroke="#132e65" stroke-width="1.5"></path><path d="M1437.95 96.55L1399.17 243.95" stroke="#132e65" stroke-width="1.5"></path><path d="M1399.17 243.95L1399.17 243.95" stroke="#132e65" stroke-width="1.5"></path><path d="M1399.17 243.95L1432.65 372.33" stroke="#132e65" stroke-width="1.5"></path><path d="M1432.65 372.33L1432.65 372.33" stroke="#132e65" stroke-width="1.5"></path><path d="M1432.65 372.33L1446.66 491.39" stroke="#132e65" stroke-width="1.5"></path><path d="M1432.65 372.33L1580.97 384.79" stroke="#132e65" stroke-width="1.5"></path><path d="M1432.65 372.33L1256.85 367.76" stroke="#132e65" stroke-width="1.5"></path><path d="M1432.65 372.33L1554.54 219.9" stroke="#132e65" stroke-width="1.5"></path><path d="M1432.65 372.33L1538.01 551.04" stroke="#132e65" stroke-width="1.5"></path><path d="M1446.66 491.39L1446.66 491.39" stroke="#132e65" stroke-width="1.5"></path><path d="M1446.66 491.39L1538.01 551.04" stroke="#132e65" stroke-width="1.5"></path><path d="M1446.66 491.39L1580.97 384.79" stroke="#132e65" stroke-width="1.5"></path><path d="M1446.66 491.39L1239.75 529.86" stroke="#132e65" stroke-width="1.5"></path><path d="M1590.19 -83.4L1590.19 -83.4" stroke="#132e65" stroke-width="1.5"></path><path d="M1590.19 -83.4L1604.76 111.06" stroke="#132e65" stroke-width="1.5"></path><path d="M1590.19 -83.4L1437.95 96.55" stroke="#132e65" stroke-width="1.5"></path><path d="M1590.19 -83.4L1554.54 219.9" stroke="#132e65" stroke-width="1.5"></path><path d="M1604.76 111.06L1604.76 111.06" stroke="#132e65" stroke-width="1.5"></path><path d="M1604.76 111.06L1554.54 219.9" stroke="#132e65" stroke-width="1.5"></path><path d="M1604.76 111.06L1437.95 96.55" stroke="#132e65" stroke-width="1.5"></path><path d="M1604.76 111.06L1399.17 243.95" stroke="#132e65" stroke-width="1.5"></path><path d="M1604.76 111.06L1580.97 384.79" stroke="#132e65" stroke-width="1.5"></path><path d="M1554.54 219.9L1554.54 219.9" stroke="#132e65" stroke-width="1.5"></path><path d="M1554.54 219.9L1399.17 243.95" stroke="#132e65" stroke-width="1.5"></path><path d="M1580.97 384.79L1580.97 384.79" stroke="#132e65" stroke-width="1.5"></path><path d="M1580.97 384.79L1554.54 219.9" stroke="#132e65" stroke-width="1.5"></path><path d="M1580.97 384.79L1538.01 551.04" stroke="#132e65" stroke-width="1.5"></path><path d="M1580.97 384.79L1399.17 243.95" stroke="#132e65" stroke-width="1.5"></path><path d="M1538.01 551.04L1538.01 551.04" stroke="#132e65" stroke-width="1.5"></path><path d="M1538.01 551.04L1590 672.9" stroke="#132e65" stroke-width="1.5"></path><path d="M1590 672.9L1590 672.9" stroke="#132e65" stroke-width="1.5"></path><path d="M1590 672.9L1446.66 491.39" stroke="#132e65" stroke-width="1.5"></path><path d="M1590 672.9L1580.97 384.79" stroke="#132e65" stroke-width="1.5"></path><path d="M1590 672.9L1282.07 677.22" stroke="#132e65" stroke-width="1.5"></path><circle r="5" cx="-90.08" cy="403.38" fill="#132e65"></circle><circle r="5" cx="-62.54" cy="555.38" fill="#132e65"></circle><circle r="5" cx="-83.95" cy="705.69" fill="#132e65"></circle><circle r="5" cx="77.49" cy="338.26" fill="#132e65"></circle><circle r="5" cx="55.95" cy="501.62" fill="#132e65"></circle><circle r="5" cx="98.98" cy="663.9" fill="#132e65"></circle><circle r="5" cx="226.88" cy="343.8" fill="#132e65"></circle><circle r="5" cx="197.61" cy="512.72" fill="#132e65"></circle><circle r="5" cx="248.55" cy="680.52" fill="#132e65"></circle><circle r="5" cx="339.23" cy="338.39" fill="#132e65"></circle><circle r="5" cx="356.85" cy="514.48" fill="#132e65"></circle><circle r="5" cx="402.05" cy="698.54" fill="#132e65"></circle><circle r="5" cx="521.28" cy="382.51" fill="#132e65"></circle><circle r="5" cx="523.08" cy="557.84" fill="#132e65"></circle><circle r="5" cx="561.37" cy="669.8" fill="#132e65"></circle><circle r="5" cx="671.48" cy="227.07" fill="#132e65"></circle><circle r="5" cx="676.08" cy="350.31" fill="#132e65"></circle><circle r="5" cx="708.19" cy="489.53" fill="#132e65"></circle><circle r="5" cx="655.9" cy="675" fill="#132e65"></circle><circle r="5" cx="804.4" cy="193.34" fill="#132e65"></circle><circle r="5" cx="791.65" cy="395.91" fill="#132e65"></circle><circle r="5" cx="827.36" cy="560.95" fill="#132e65"></circle><circle r="5" cx="827.04" cy="650.03" fill="#132e65"></circle><circle r="5" cx="947.13" cy="-110.74" fill="#132e65"></circle><circle r="5" cx="988.09" cy="256.49" fill="#132e65"></circle><circle r="5" cx="966.14" cy="560.89" fill="#132e65"></circle><circle r="5" cx="1005.29" cy="677.08" fill="#132e65"></circle><circle r="5" cx="1161.8" cy="-92.88" fill="#132e65"></circle><circle r="5" cx="1100.11" cy="76" fill="#132e65"></circle><circle r="5" cx="1152.47" cy="246.21" fill="#132e65"></circle><circle r="5" cx="1125.11" cy="360.82" fill="#132e65"></circle><circle r="5" cx="1137.14" cy="515.4" fill="#132e65"></circle><circle r="5" cx="1118.58" cy="650.82" fill="#132e65"></circle><circle r="5" cx="1283.46" cy="88.52" fill="#132e65"></circle><circle r="5" cx="1286.99" cy="194.27" fill="#132e65"></circle><circle r="5" cx="1256.85" cy="367.76" fill="#132e65"></circle><circle r="5" cx="1239.75" cy="529.86" fill="#132e65"></circle><circle r="5" cx="1282.07" cy="677.22" fill="#132e65"></circle><circle r="5" cx="1425.99" cy="-51.85" fill="#132e65"></circle><circle r="5" cx="1437.95" cy="96.55" fill="#132e65"></circle><circle r="5" cx="1399.17" cy="243.95" fill="#132e65"></circle><circle r="5" cx="1432.65" cy="372.33" fill="#132e65"></circle><circle r="5" cx="1446.66" cy="491.39" fill="#132e65"></circle><circle r="5" cx="1590.19" cy="-83.4" fill="#132e65"></circle><circle r="5" cx="1604.76" cy="111.06" fill="#132e65"></circle><circle r="5" cx="1554.54" cy="219.9" fill="#132e65"></circle><circle r="5" cx="1580.97" cy="384.79" fill="#132e65"></circle><circle r="5" cx="1538.01" cy="551.04" fill="#132e65"></circle><circle r="5" cx="1590" cy="672.9" fill="#132e65"></circle><path d="M258.91 675.07L258.91 675.07" stroke="hsl(228.5, 77.2%, 51.5%)" stroke-width="1.5"></path><path d="M258.91 675.07L350.41 661.73" stroke="hsl(228.5, 77.2%, 51.5%)" stroke-width="1.5"></path><path d="M258.91 675.07L226.16 529.7" stroke="hsl(228.5, 77.2%, 51.5%)" stroke-width="1.5"></path><path d="M258.91 675.07L91.16 678.77" stroke="hsl(228.5, 77.2%, 51.5%)" stroke-width="1.5"></path><path d="M258.91 675.07L379.5 521.88" stroke="hsl(228.5, 77.2%, 51.5%)" stroke-width="1.5"></path><path d="M697.56 503.68L697.56 503.68" stroke="hsl(228.5, 77.2%, 51.5%)" stroke-width="1.5"></path><path d="M697.56 503.68L651.04 373.86" stroke="hsl(228.5, 77.2%, 51.5%)" stroke-width="1.5"></path><path d="M697.56 503.68L657.29 656.45" stroke="hsl(228.5, 77.2%, 51.5%)" stroke-width="1.5"></path><path d="M853.3 637.54L853.3 637.54" stroke="hsl(228.5, 77.2%, 51.5%)" stroke-width="1.5"></path><path d="M853.3 637.54L859.62 492.27" stroke="hsl(228.5, 77.2%, 51.5%)" stroke-width="1.5"></path><path d="M853.3 637.54L999.31 709.98" stroke="hsl(228.5, 77.2%, 51.5%)" stroke-width="1.5"></path><path d="M988.65 503.93L988.65 503.93" stroke="hsl(228.5, 77.2%, 51.5%)" stroke-width="1.5"></path><path d="M988.65 503.93L996.75 388.76" stroke="hsl(228.5, 77.2%, 51.5%)" stroke-width="1.5"></path><path d="M988.65 503.93L859.62 492.27" stroke="hsl(228.5, 77.2%, 51.5%)" stroke-width="1.5"></path><path d="M988.65 503.93L1160.95 494.45" stroke="hsl(228.5, 77.2%, 51.5%)" stroke-width="1.5"></path><path d="M988.65 503.93L853.3 637.54" stroke="hsl(228.5, 77.2%, 51.5%)" stroke-width="1.5"></path><path d="M988.65 503.93L999.31 709.98" stroke="hsl(228.5, 77.2%, 51.5%)" stroke-width="1.5"></path><path d="M988.65 503.93L833.33 362.97" stroke="hsl(228.5, 77.2%, 51.5%)" stroke-width="1.5"></path><path d="M999.31 709.98L999.31 709.98" stroke="hsl(228.5, 77.2%, 51.5%)" stroke-width="1.5"></path><path d="M999.31 709.98L1140.52 708.33" stroke="hsl(228.5, 77.2%, 51.5%)" stroke-width="1.5"></path><path d="M999.31 709.98L859.62 492.27" stroke="hsl(228.5, 77.2%, 51.5%)" stroke-width="1.5"></path><path d="M999.31 709.98L1160.95 494.45" stroke="hsl(228.5, 77.2%, 51.5%)" stroke-width="1.5"></path><path d="M1261.17 370.73L1261.17 370.73" stroke="hsl(228.5, 77.2%, 51.5%)" stroke-width="1.5"></path><path d="M1261.17 370.73L1157.54 374.25" stroke="hsl(228.5, 77.2%, 51.5%)" stroke-width="1.5"></path><path d="M1261.17 370.73L1304.01 232" stroke="hsl(228.5, 77.2%, 51.5%)" stroke-width="1.5"></path><path d="M1261.17 370.73L1282.02 515.26" stroke="hsl(228.5, 77.2%, 51.5%)" stroke-width="1.5"></path><path d="M1261.17 370.73L1417.16 387.35" stroke="hsl(228.5, 77.2%, 51.5%)" stroke-width="1.5"></path><path d="M-103.16 545.64L-103.16 545.64" stroke="hsl(228.5, 77.2%, 51.5%)" stroke-width="1.5"></path><path d="M-103.16 545.64L-84.93 639.28" stroke="hsl(228.5, 77.2%, 51.5%)" stroke-width="1.5"></path><path d="M-103.16 545.64L39.8 539.14" stroke="hsl(228.5, 77.2%, 51.5%)" stroke-width="1.5"></path><path d="M-103.16 545.64L91.16 678.77" stroke="hsl(228.5, 77.2%, 51.5%)" stroke-width="1.5"></path><path d="M-103.16 545.64L226.16 529.7" stroke="hsl(228.5, 77.2%, 51.5%)" stroke-width="1.5"></path><path d="M-103.16 545.64L258.91 675.07" stroke="hsl(228.5, 77.2%, 51.5%)" stroke-width="1.5"></path><path d="M-103.16 545.64L350.41 661.73" stroke="hsl(228.5, 77.2%, 51.5%)" stroke-width="1.5"></path><path d="M-84.93 639.28L-84.93 639.28" stroke="hsl(228.5, 77.2%, 51.5%)" stroke-width="1.5"></path><path d="M-84.93 639.28L39.8 539.14" stroke="hsl(228.5, 77.2%, 51.5%)" stroke-width="1.5"></path><path d="M-84.93 639.28L91.16 678.77" stroke="hsl(228.5, 77.2%, 51.5%)" stroke-width="1.5"></path><path d="M-84.93 639.28L226.16 529.7" stroke="hsl(228.5, 77.2%, 51.5%)" stroke-width="1.5"></path><path d="M-84.93 639.28L258.91 675.07" stroke="hsl(228.5, 77.2%, 51.5%)" stroke-width="1.5"></path><path d="M39.8 539.14L39.8 539.14" stroke="hsl(228.5, 77.2%, 51.5%)" stroke-width="1.5"></path><path d="M39.8 539.14L91.16 678.77" stroke="hsl(228.5, 77.2%, 51.5%)" stroke-width="1.5"></path><path d="M39.8 539.14L226.16 529.7" stroke="hsl(228.5, 77.2%, 51.5%)" stroke-width="1.5"></path><path d="M39.8 539.14L258.91 675.07" stroke="hsl(228.5, 77.2%, 51.5%)" stroke-width="1.5"></path><path d="M91.16 678.77L91.16 678.77" stroke="hsl(228.5, 77.2%, 51.5%)" stroke-width="1.5"></path><path d="M91.16 678.77L226.16 529.7" stroke="hsl(228.5, 77.2%, 51.5%)" stroke-width="1.5"></path><path d="M91.16 678.77L350.41 661.73" stroke="hsl(228.5, 77.2%, 51.5%)" stroke-width="1.5"></path><path d="M226.16 529.7L226.16 529.7" stroke="hsl(228.5, 77.2%, 51.5%)" stroke-width="1.5"></path><path d="M226.16 529.7L379.5 521.88" stroke="hsl(228.5, 77.2%, 51.5%)" stroke-width="1.5"></path><path d="M226.16 529.7L350.41 661.73" stroke="hsl(228.5, 77.2%, 51.5%)" stroke-width="1.5"></path><path d="M379.5 521.88L379.5 521.88" stroke="hsl(228.5, 77.2%, 51.5%)" stroke-width="1.5"></path><path d="M379.5 521.88L350.41 661.73" stroke="hsl(228.5, 77.2%, 51.5%)" stroke-width="1.5"></path><path d="M379.5 521.88L529.02 528.84" stroke="hsl(228.5, 77.2%, 51.5%)" stroke-width="1.5"></path><path d="M350.41 661.73L350.41 661.73" stroke="hsl(228.5, 77.2%, 51.5%)" stroke-width="1.5"></path><path d="M350.41 661.73L522.95 676.61" stroke="hsl(228.5, 77.2%, 51.5%)" stroke-width="1.5"></path><path d="M350.41 661.73L529.02 528.84" stroke="hsl(228.5, 77.2%, 51.5%)" stroke-width="1.5"></path><path d="M529.02 528.84L529.02 528.84" stroke="hsl(228.5, 77.2%, 51.5%)" stroke-width="1.5"></path><path d="M529.02 528.84L522.95 676.61" stroke="hsl(228.5, 77.2%, 51.5%)" stroke-width="1.5"></path><path d="M529.02 528.84L697.56 503.68" stroke="hsl(228.5, 77.2%, 51.5%)" stroke-width="1.5"></path><path d="M522.95 676.61L522.95 676.61" stroke="hsl(228.5, 77.2%, 51.5%)" stroke-width="1.5"></path><path d="M522.95 676.61L657.29 656.45" stroke="hsl(228.5, 77.2%, 51.5%)" stroke-width="1.5"></path><path d="M522.95 676.61L379.5 521.88" stroke="hsl(228.5, 77.2%, 51.5%)" stroke-width="1.5"></path><path d="M522.95 676.61L697.56 503.68" stroke="hsl(228.5, 77.2%, 51.5%)" stroke-width="1.5"></path><path d="M522.95 676.61L258.91 675.07" stroke="hsl(228.5, 77.2%, 51.5%)" stroke-width="1.5"></path><path d="M651.04 373.86L651.04 373.86" stroke="hsl(228.5, 77.2%, 51.5%)" stroke-width="1.5"></path><path d="M651.04 373.86L833.33 362.97" stroke="hsl(228.5, 77.2%, 51.5%)" stroke-width="1.5"></path><path d="M657.29 656.45L657.29 656.45" stroke="hsl(228.5, 77.2%, 51.5%)" stroke-width="1.5"></path><path d="M657.29 656.45L529.02 528.84" stroke="hsl(228.5, 77.2%, 51.5%)" stroke-width="1.5"></path><path d="M657.29 656.45L853.3 637.54" stroke="hsl(228.5, 77.2%, 51.5%)" stroke-width="1.5"></path><path d="M833.33 362.97L833.33 362.97" stroke="hsl(228.5, 77.2%, 51.5%)" stroke-width="1.5"></path><path d="M833.33 362.97L859.62 492.27" stroke="hsl(228.5, 77.2%, 51.5%)" stroke-width="1.5"></path><path d="M833.33 362.97L996.75 388.76" stroke="hsl(228.5, 77.2%, 51.5%)" stroke-width="1.5"></path><path d="M859.62 492.27L859.62 492.27" stroke="hsl(228.5, 77.2%, 51.5%)" stroke-width="1.5"></path><path d="M996.75 388.76L996.75 388.76" stroke="hsl(228.5, 77.2%, 51.5%)" stroke-width="1.5"></path><path d="M996.75 388.76L1157.54 374.25" stroke="hsl(228.5, 77.2%, 51.5%)" stroke-width="1.5"></path><path d="M996.75 388.76L859.62 492.27" stroke="hsl(228.5, 77.2%, 51.5%)" stroke-width="1.5"></path><path d="M996.75 388.76L1160.95 494.45" stroke="hsl(228.5, 77.2%, 51.5%)" stroke-width="1.5"></path><path d="M996.75 388.76L1151.89 246.7" stroke="hsl(228.5, 77.2%, 51.5%)" stroke-width="1.5"></path><path d="M1151.89 246.7L1151.89 246.7" stroke="hsl(228.5, 77.2%, 51.5%)" stroke-width="1.5"></path><path d="M1151.89 246.7L1157.54 374.25" stroke="hsl(228.5, 77.2%, 51.5%)" stroke-width="1.5"></path><path d="M1151.89 246.7L1304.01 232" stroke="hsl(228.5, 77.2%, 51.5%)" stroke-width="1.5"></path><path d="M1151.89 246.7L1261.17 370.73" stroke="hsl(228.5, 77.2%, 51.5%)" stroke-width="1.5"></path><path d="M1151.89 246.7L1271.21 74.14" stroke="hsl(228.5, 77.2%, 51.5%)" stroke-width="1.5"></path><path d="M1157.54 374.25L1157.54 374.25" stroke="hsl(228.5, 77.2%, 51.5%)" stroke-width="1.5"></path><path d="M1157.54 374.25L1160.95 494.45" stroke="hsl(228.5, 77.2%, 51.5%)" stroke-width="1.5"></path><path d="M1157.54 374.25L1282.02 515.26" stroke="hsl(228.5, 77.2%, 51.5%)" stroke-width="1.5"></path><path d="M1157.54 374.25L1304.01 232" stroke="hsl(228.5, 77.2%, 51.5%)" stroke-width="1.5"></path><path d="M1160.95 494.45L1160.95 494.45" stroke="hsl(228.5, 77.2%, 51.5%)" stroke-width="1.5"></path><path d="M1160.95 494.45L1282.02 515.26" stroke="hsl(228.5, 77.2%, 51.5%)" stroke-width="1.5"></path><path d="M1140.52 708.33L1140.52 708.33" stroke="hsl(228.5, 77.2%, 51.5%)" stroke-width="1.5"></path><path d="M1140.52 708.33L1273.73 659.02" stroke="hsl(228.5, 77.2%, 51.5%)" stroke-width="1.5"></path><path d="M1140.52 708.33L1160.95 494.45" stroke="hsl(228.5, 77.2%, 51.5%)" stroke-width="1.5"></path><path d="M1140.52 708.33L1282.02 515.26" stroke="hsl(228.5, 77.2%, 51.5%)" stroke-width="1.5"></path><path d="M1288.44 -80.81L1288.44 -80.81" stroke="hsl(228.5, 77.2%, 51.5%)" stroke-width="1.5"></path><path d="M1288.44 -80.81L1271.21 74.14" stroke="hsl(228.5, 77.2%, 51.5%)" stroke-width="1.5"></path><path d="M1271.21 74.14L1271.21 74.14" stroke="hsl(228.5, 77.2%, 51.5%)" stroke-width="1.5"></path><path d="M1271.21 74.14L1304.01 232" stroke="hsl(228.5, 77.2%, 51.5%)" stroke-width="1.5"></path><path d="M1271.21 74.14L1455.56 65.62" stroke="hsl(228.5, 77.2%, 51.5%)" stroke-width="1.5"></path><path d="M1271.21 74.14L1445.38 207.91" stroke="hsl(228.5, 77.2%, 51.5%)" stroke-width="1.5"></path><path d="M1271.21 74.14L1552.09 38.16" stroke="hsl(228.5, 77.2%, 51.5%)" stroke-width="1.5"></path><path d="M1304.01 232L1304.01 232" stroke="hsl(228.5, 77.2%, 51.5%)" stroke-width="1.5"></path><path d="M1304.01 232L1445.38 207.91" stroke="hsl(228.5, 77.2%, 51.5%)" stroke-width="1.5"></path><path d="M1304.01 232L1417.16 387.35" stroke="hsl(228.5, 77.2%, 51.5%)" stroke-width="1.5"></path><path d="M1282.02 515.26L1282.02 515.26" stroke="hsl(228.5, 77.2%, 51.5%)" stroke-width="1.5"></path><path d="M1282.02 515.26L1273.73 659.02" stroke="hsl(228.5, 77.2%, 51.5%)" stroke-width="1.5"></path><path d="M1273.73 659.02L1273.73 659.02" stroke="hsl(228.5, 77.2%, 51.5%)" stroke-width="1.5"></path><path d="M1273.73 659.02L1414.25 709" stroke="hsl(228.5, 77.2%, 51.5%)" stroke-width="1.5"></path><path d="M1455.56 65.62L1455.56 65.62" stroke="hsl(228.5, 77.2%, 51.5%)" stroke-width="1.5"></path><path d="M1455.56 65.62L1552.09 38.16" stroke="hsl(228.5, 77.2%, 51.5%)" stroke-width="1.5"></path><path d="M1455.56 65.62L1445.38 207.91" stroke="hsl(228.5, 77.2%, 51.5%)" stroke-width="1.5"></path><path d="M1445.38 207.91L1445.38 207.91" stroke="hsl(228.5, 77.2%, 51.5%)" stroke-width="1.5"></path><path d="M1445.38 207.91L1559.24 217.94" stroke="hsl(228.5, 77.2%, 51.5%)" stroke-width="1.5"></path><path d="M1417.16 387.35L1417.16 387.35" stroke="hsl(228.5, 77.2%, 51.5%)" stroke-width="1.5"></path><path d="M1417.16 387.35L1575.97 356.88" stroke="hsl(228.5, 77.2%, 51.5%)" stroke-width="1.5"></path><path d="M1417.16 387.35L1421.43 562.36" stroke="hsl(228.5, 77.2%, 51.5%)" stroke-width="1.5"></path><path d="M1417.16 387.35L1445.38 207.91" stroke="hsl(228.5, 77.2%, 51.5%)" stroke-width="1.5"></path><path d="M1421.43 562.36L1421.43 562.36" stroke="hsl(228.5, 77.2%, 51.5%)" stroke-width="1.5"></path><path d="M1421.43 562.36L1562.12 530.12" stroke="hsl(228.5, 77.2%, 51.5%)" stroke-width="1.5"></path><path d="M1421.43 562.36L1414.25 709" stroke="hsl(228.5, 77.2%, 51.5%)" stroke-width="1.5"></path><path d="M1421.43 562.36L1282.02 515.26" stroke="hsl(228.5, 77.2%, 51.5%)" stroke-width="1.5"></path><path d="M1421.43 562.36L1273.73 659.02" stroke="hsl(228.5, 77.2%, 51.5%)" stroke-width="1.5"></path><path d="M1414.25 709L1414.25 709" stroke="hsl(228.5, 77.2%, 51.5%)" stroke-width="1.5"></path><path d="M1414.25 709L1598.68 662.37" stroke="hsl(228.5, 77.2%, 51.5%)" stroke-width="1.5"></path><path d="M1414.25 709L1562.12 530.12" stroke="hsl(228.5, 77.2%, 51.5%)" stroke-width="1.5"></path><path d="M1567.95 -100.93L1567.95 -100.93" stroke="hsl(228.5, 77.2%, 51.5%)" stroke-width="1.5"></path><path d="M1567.95 -100.93L1552.09 38.16" stroke="hsl(228.5, 77.2%, 51.5%)" stroke-width="1.5"></path><path d="M1567.95 -100.93L1455.56 65.62" stroke="hsl(228.5, 77.2%, 51.5%)" stroke-width="1.5"></path><path d="M1567.95 -100.93L1288.44 -80.81" stroke="hsl(228.5, 77.2%, 51.5%)" stroke-width="1.5"></path><path d="M1552.09 38.16L1552.09 38.16" stroke="hsl(228.5, 77.2%, 51.5%)" stroke-width="1.5"></path><path d="M1552.09 38.16L1559.24 217.94" stroke="hsl(228.5, 77.2%, 51.5%)" stroke-width="1.5"></path><path d="M1552.09 38.16L1445.38 207.91" stroke="hsl(228.5, 77.2%, 51.5%)" stroke-width="1.5"></path><path d="M1559.24 217.94L1559.24 217.94" stroke="hsl(228.5, 77.2%, 51.5%)" stroke-width="1.5"></path><path d="M1559.24 217.94L1575.97 356.88" stroke="hsl(228.5, 77.2%, 51.5%)" stroke-width="1.5"></path><path d="M1575.97 356.88L1575.97 356.88" stroke="hsl(228.5, 77.2%, 51.5%)" stroke-width="1.5"></path><path d="M1575.97 356.88L1562.12 530.12" stroke="hsl(228.5, 77.2%, 51.5%)" stroke-width="1.5"></path><path d="M1575.97 356.88L1445.38 207.91" stroke="hsl(228.5, 77.2%, 51.5%)" stroke-width="1.5"></path><path d="M1575.97 356.88L1421.43 562.36" stroke="hsl(228.5, 77.2%, 51.5%)" stroke-width="1.5"></path><path d="M1575.97 356.88L1304.01 232" stroke="hsl(228.5, 77.2%, 51.5%)" stroke-width="1.5"></path><path d="M1562.12 530.12L1562.12 530.12" stroke="hsl(228.5, 77.2%, 51.5%)" stroke-width="1.5"></path><path d="M1562.12 530.12L1598.68 662.37" stroke="hsl(228.5, 77.2%, 51.5%)" stroke-width="1.5"></path><path d="M1598.68 662.37L1598.68 662.37" stroke="hsl(228.5, 77.2%, 51.5%)" stroke-width="1.5"></path><path d="M1598.68 662.37L1421.43 562.36" stroke="hsl(228.5, 77.2%, 51.5%)" stroke-width="1.5"></path><circle r="25" cx="258.91" cy="675.07" fill="url(#SvgjsRadialGradient1001)"></circle><circle r="25" cx="697.56" cy="503.68" fill="url(#SvgjsRadialGradient1001)"></circle><circle r="25" cx="853.3" cy="637.54" fill="url(#SvgjsRadialGradient1001)"></circle><circle r="25" cx="988.65" cy="503.93" fill="url(#SvgjsRadialGradient1001)"></circle><circle r="25" cx="999.31" cy="709.98" fill="url(#SvgjsRadialGradient1001)"></circle><circle r="25" cx="1261.17" cy="370.73" fill="url(#SvgjsRadialGradient1001)"></circle><circle r="5" cx="-103.16" cy="545.64" fill="#8b9ad9"></circle><circle r="5" cx="-84.93" cy="639.28" fill="#8b9ad9"></circle><circle r="5" cx="39.8" cy="539.14" fill="#8b9ad9"></circle><circle r="5" cx="91.16" cy="678.77" fill="#8b9ad9"></circle><circle r="5" cx="226.16" cy="529.7" fill="#8b9ad9"></circle><circle r="5" cx="379.5" cy="521.88" fill="#8b9ad9"></circle><circle r="5" cx="350.41" cy="661.73" fill="#8b9ad9"></circle><circle r="5" cx="529.02" cy="528.84" fill="#8b9ad9"></circle><circle r="5" cx="522.95" cy="676.61" fill="#8b9ad9"></circle><circle r="5" cx="651.04" cy="373.86" fill="#8b9ad9"></circle><circle r="5" cx="657.29" cy="656.45" fill="#8b9ad9"></circle><circle r="5" cx="833.33" cy="362.97" fill="#8b9ad9"></circle><circle r="5" cx="859.62" cy="492.27" fill="#8b9ad9"></circle><circle r="5" cx="996.75" cy="388.76" fill="#8b9ad9"></circle><circle r="5" cx="1151.89" cy="246.7" fill="#8b9ad9"></circle><circle r="5" cx="1157.54" cy="374.25" fill="#8b9ad9"></circle><circle r="5" cx="1160.95" cy="494.45" fill="#8b9ad9"></circle><circle r="5" cx="1140.52" cy="708.33" fill="#8b9ad9"></circle><circle r="5" cx="1288.44" cy="-80.81" fill="#8b9ad9"></circle><circle r="5" cx="1271.21" cy="74.14" fill="#8b9ad9"></circle><circle r="5" cx="1304.01" cy="232" fill="#8b9ad9"></circle><circle r="5" cx="1282.02" cy="515.26" fill="#8b9ad9"></circle><circle r="5" cx="1273.73" cy="659.02" fill="#8b9ad9"></circle><circle r="5" cx="1455.56" cy="65.62" fill="#8b9ad9"></circle><circle r="5" cx="1445.38" cy="207.91" fill="#8b9ad9"></circle><circle r="5" cx="1417.16" cy="387.35" fill="#8b9ad9"></circle><circle r="5" cx="1421.43" cy="562.36" fill="#8b9ad9"></circle><circle r="5" cx="1414.25" cy="709" fill="#8b9ad9"></circle><circle r="5" cx="1567.95" cy="-100.93" fill="#8b9ad9"></circle><circle r="5" cx="1552.09" cy="38.16" fill="#8b9ad9"></circle><circle r="5" cx="1559.24" cy="217.94" fill="#8b9ad9"></circle><circle r="5" cx="1575.97" cy="356.88" fill="#8b9ad9"></circle><circle r="5" cx="1562.12" cy="530.12" fill="#8b9ad9"></circle><circle r="5" cx="1598.68" cy="662.37" fill="#8b9ad9"></circle></g><defs><mask id="SvgjsMask1000"><rect width="1440" height="560" fill="#ffffff"></rect></mask><radialGradient id="SvgjsRadialGradient1001"><stop stop-color="#ffffff" offset="0.1"></stop><stop stop-color="#1735b3" offset="0.2"></stop><stop stop-color="rgba(23, 53, 179, 0)" offset="1"></stop></radialGradient></defs></svg>