<svg xmlns="http://www.w3.org/2000/svg" version="1.1" xmlns:xlink="http://www.w3.org/1999/xlink" xmlns:svgjs="http://svgjs.com/svgjs" width="1440" height="560" preserveAspectRatio="none" viewBox="0 0 1440 560"><g mask="url(&quot;#SvgjsMask1000&quot;)" fill="none"><rect width="1440" height="560" x="0" y="0" fill="#0e2a47"></rect><g transform="translate(0, 0)" stroke-linecap="round"><path d="M260 128.76 L260 431.24" stroke-width="15" stroke="#dd1133"></path><path d="M280 237.78 L280 322.23" stroke-width="15" stroke="#dd1133"></path><path d="M300 149.17 L300 410.83" stroke-width="15" stroke="#dd1133"></path><path d="M320 169 L320 391" stroke-width="15" stroke="#3a7cc3"></path><path d="M340 226 L340 334" stroke-width="15" stroke="#dd1133"></path><path d="M360 144.59 L360 415.4" stroke-width="15" stroke="#3a7cc3"></path><path d="M380 196.53 L380 363.48" stroke-width="15" stroke="#dd1133"></path><path d="M400 182.42 L400 377.58" stroke-width="15" stroke="#3a7cc3"></path><path d="M420 115.95 L420 444.05" stroke-width="15" stroke="#dd1133"></path><path d="M440 182.31 L440 377.69" stroke-width="15" stroke="#3a7cc3"></path><path d="M460 108.91 L460 451.09" stroke-width="15" stroke="#3a7cc3"></path><path d="M480 204.14 L480 355.86" stroke-width="15" stroke="#3a7cc3"></path><path d="M500 255.72 L500 304.29" stroke-width="15" stroke="#dd1133"></path><path d="M520 146.6 L520 413.4" stroke-width="15" stroke="#3a7cc3"></path><path d="M540 177.26 L540 382.74" stroke-width="15" stroke="#dd1133"></path><path d="M560 220.07 L560 339.93" stroke-width="15" stroke="#3a7cc3"></path><path d="M580 159.18 L580 400.82" stroke-width="15" stroke="#3a7cc3"></path><path d="M600 110.99 L600 449.01" stroke-width="15" stroke="#dd1133"></path><path d="M620 201.38 L620 358.63" stroke-width="15" stroke="#dd1133"></path><path d="M640 167.7 L640 392.3" stroke-width="15" stroke="#3a7cc3"></path><path d="M660 179.5 L660 380.5" stroke-width="15" stroke="#dd1133"></path><path d="M680 224.81 L680 335.19" stroke-width="15" stroke="#3a7cc3"></path><path d="M700 160.39 L700 399.61" stroke-width="15" stroke="#dd1133"></path><path d="M720 257.5 L720 302.5" stroke-width="15" stroke="#3a7cc3"></path><path d="M740 221.62 L740 338.38" stroke-width="15" stroke="#dd1133"></path><path d="M760 195.71 L760 364.29" stroke-width="15" stroke="#dd1133"></path><path d="M780 193.7 L780 366.3" stroke-width="15" stroke="#dd1133"></path><path d="M800 163.62 L800 396.38" stroke-width="15" stroke="#3a7cc3"></path><path d="M820 149.31 L820 410.69" stroke-width="15" stroke="#dd1133"></path><path d="M840 191.34 L840 368.66" stroke-width="15" stroke="#dd1133"></path><path d="M860 174.55 L860 385.45" stroke-width="15" stroke="#dd1133"></path><path d="M880 168.61 L880 391.39" stroke-width="15" stroke="#3a7cc3"></path><path d="M900 206.93 L900 353.07" stroke-width="15" stroke="#dd1133"></path><path d="M920 165.58 L920 394.42" stroke-width="15" stroke="#3a7cc3"></path><path d="M940 232.19 L940 327.81" stroke-width="15" stroke="#dd1133"></path><path d="M960 124.26 L960 435.74" stroke-width="15" stroke="#dd1133"></path><path d="M980 183.06 L980 376.94" stroke-width="15" stroke="#dd1133"></path><path d="M1000 151.34 L1000 408.65" stroke-width="15" stroke="#3a7cc3"></path><path d="M1020 252.8 L1020 307.2" stroke-width="15" stroke="#dd1133"></path><path d="M1040 156.49 L1040 403.51" stroke-width="15" stroke="#dd1133"></path><path d="M1060 207.52 L1060 352.48" stroke-width="15" stroke="#3a7cc3"></path><path d="M1080 218.41 L1080 341.58" stroke-width="15" stroke="#3a7cc3"></path><path d="M1100 175.07 L1100 384.93" stroke-width="15" stroke="#dd1133"></path><path d="M1120 261.12 L1120 298.88" stroke-width="15" stroke="#dd1133"></path><path d="M1140 119.46 L1140 440.54" stroke-width="15" stroke="#3a7cc3"></path><path d="M1160 183.39 L1160 376.61" stroke-width="15" stroke="#dd1133"></path><path d="M1180 149.19 L1180 410.81" stroke-width="15" stroke="#3a7cc3"></path></g></g><defs><mask id="SvgjsMask1000"><rect width="1440" height="560" fill="#ffffff"></rect></mask></defs></svg>